<svg width="133" height="133" viewBox="0 0 133 133" fill="none" xmlns="http://www.w3.org/2000/svg">
<path d="M46.033 123.166L40.9687 115.619V123.166H35.511V105.761H40.9687V113.087L45.9592 105.761H52.1298L46.1313 114.095L52.5232 123.166H46.033Z" fill="#34495E"/>
<path d="M78.678 105.761V123.166H73.2449V114.488L70.5652 123.166H65.8943L63.2146 114.488V123.166H57.7569V105.761H64.4438L68.2789 116.209L72.0157 105.761H78.678Z" fill="#34495E"/>
<path d="M91.638 123.338C89.5564 123.338 87.8356 122.855 86.4753 121.888C85.1313 120.905 84.4019 119.471 84.2873 117.586H90.0892C90.1711 118.586 90.6136 119.085 91.4167 119.085C91.7117 119.085 91.9576 119.02 92.1543 118.889C92.3671 118.741 92.4738 118.52 92.4738 118.225C92.4738 117.815 92.2526 117.487 91.8101 117.242C91.3676 116.979 90.6792 116.684 89.745 116.357C88.6304 115.963 87.7045 115.578 86.967 115.201C86.2457 114.824 85.623 114.275 85.0986 113.554C84.574 112.833 84.32 111.907 84.3365 110.776C84.3365 109.645 84.6232 108.686 85.197 107.9C85.787 107.096 86.5818 106.49 87.5816 106.08C88.5977 105.671 89.7367 105.466 90.9988 105.466C93.1293 105.466 94.8174 105.958 96.0631 106.941C97.325 107.924 97.9888 109.309 98.0544 111.096H92.1788C92.1624 110.604 92.0394 110.252 91.8101 110.038C91.5805 109.825 91.3019 109.719 90.9742 109.719C90.7446 109.719 90.5563 109.801 90.4088 109.965C90.2613 110.112 90.1875 110.325 90.1875 110.604C90.1875 110.997 90.4004 111.325 90.8267 111.587C91.2692 111.833 91.9657 112.136 92.9164 112.497C94.0143 112.907 94.9158 113.3 95.6206 113.677C96.3417 114.054 96.9644 114.578 97.489 115.25C98.0134 115.922 98.2757 116.766 98.2757 117.782C98.2757 118.848 98.0134 119.806 97.489 120.659C96.9644 121.495 96.2023 122.15 95.2027 122.626C94.2028 123.101 93.0147 123.338 91.638 123.338Z" fill="#34495E"/>
<path d="M48.1848 42.7764H55.5601V50.1516H48.1848V42.7764Z" fill="#34495E"/>
<path d="M48.1848 52.1184H55.5601V59.4936H48.1848V52.1184Z" fill="#34495E"/>
<path d="M48.1848 61.4602H55.5601V68.8354H48.1848V61.4602Z" fill="#34495E"/>
<path d="M57.281 61.4602H64.6562V68.8354H57.281V61.4602Z" fill="#34495E"/>
<path d="M57.281 52.1184H64.6562V59.4936H57.281V52.1184Z" fill="#34495E"/>
<path d="M66.6229 61.4602H73.9982V68.8354H66.6229V61.4602Z" fill="#34495E"/>
<path d="M69.5713 49.9174L75.4614 45.4788L79.9 51.3689L74.0099 55.8075L69.5713 49.9174Z" fill="#34495E"/>
<path d="M63.2079 39.5027L67.4381 33.4612L73.4797 37.6914L69.2495 43.7329L63.2079 39.5027Z" fill="#34495E"/>
<path d="M77.6858 31.7134H85.061V39.0886H77.6858V31.7134Z" fill="#34495E"/>
<path fill-rule="evenodd" clip-rule="evenodd" d="M66.6229 8.13595L30.0233 29.2667V71.5283L66.6229 92.6591L103.222 71.5283V29.2667L66.6229 8.13595ZM108.139 26.428L66.6229 2.4585L25.1065 26.428V74.367L66.6229 98.3365L108.139 74.367V26.428Z" fill="#34495E"/>
</svg>
